#Comment line ignore any data following # character 
#Hierarchical Translation and Rotation (.htr) file 
[Header]	
#Header keywords are followed by a single value 
FileType HTR		#Single word string
DataType HTRS		#Translation followed by rotation and scale data
FileVersion 1		#integer
NumSegments 64		#integer
NumFrames 3		#integer
DataFrameRate 30		#integer, data frame rate in this file
EulerRotationOrder ZYX
CalibrationUnits mm
RotationUnits Degrees
GlobalAxisofGravity Y
BoneLengthAxis Y
ScaleFactor 1.00
[SegmentNames&Hierarchy]
#CHILD	PARENT
Pinger_Root GLOBAL
Pelvis Pinger_Root
L_Hip Pelvis
R_Hip Pelvis
Rear_Leg01 Pelvis
Spine1 Pelvis
L_Leg01 L_Hip
L_Leg02 L_Leg01
L_Leg03 L_Leg02
L_Foot L_Leg03
L_Toe1_01 L_Foot
L_Toe2_01 L_Foot
L_Toe3_01 L_Foot
planeAlignerLeft L_Foot
L_Toe1_02 L_Toe1_01
L_Toe1_03 L_Toe1_02
L_Toe2_02 L_Toe2_01
L_Toe2_03 L_Toe2_02
L_Toe3_02 L_Toe3_01
L_Toe3_03 L_Toe3_02
planeLockWeightLeft planeAlignerLeft
R_Leg01 R_Hip
R_Leg02 R_Leg01
R_Leg03 R_Leg02
R_Foot R_Leg03
planeAlignerRight R_Foot
R_Toe1_01 R_Foot
R_Toe2_01 R_Foot
R_Toe3_01 R_Foot
planeLockWeightRight planeAlignerRight
R_Toe1_02 R_Toe1_01
R_Toe1_03 R_Toe1_02
R_Toe2_02 R_Toe2_01
R_Toe2_03 R_Toe2_02
R_Toe3_02 R_Toe3_01
R_Toe3_03 R_Toe3_02
Rear_Leg02 Rear_Leg01
Rear_Leg03 Rear_Leg02
Rear_Leg04 Rear_Leg03
Rear_Foot Rear_Leg04
planeAlignerCenter Rear_Foot
Rear_Toe1_01 Rear_Foot
Rear_Toe2_01 Rear_Foot
Rear_Toe3_01 Rear_Foot
planeLockWeightCenter planeAlignerCenter
Rear_Toe1_02 Rear_Toe1_01
Rear_Toe1_03 Rear_Toe1_02
Rear_Toe2_02 Rear_Toe2_01
Rear_Toe2_03 Rear_Toe2_02
Rear_Toe3_02 Rear_Toe3_01
Rear_Toe3_03 Rear_Toe3_02
Back_Bone Spine1
Head Spine1
Motor_Bone Back_Bone
Ping_Mechanism Back_Bone
BN_LookIK Head
bottomMouth Head
L_Mouth01 Head
L_mouthFront Head
mouthGun Head
R_Mouth01 Head
R_mouthFront Head
TopMouth Head
weapon_bone Head
[BasePosition]
#SegmentName Tx, Ty, Tz, Rx, Ry, Rz, BoneLength
Pinger_Root 0.000000 0.000000 0.000000 -90.000000 0.000000 0.000000 10.000000 
Pelvis 0.000000 0.000000 0.000000 0.000000 0.000000 0.000000 10.000000 
L_Hip 0.000000 0.000000 0.000000 0.000000 0.000000 0.000000 10.000000 
R_Hip 0.000000 0.000000 0.000000 0.000000 0.000000 0.000000 10.000000 
Rear_Leg01 0.000000 0.000000 0.000000 0.000000 0.000000 0.000000 10.000000 
Spine1 0.000000 0.000000 0.000000 0.000000 0.000000 0.000000 10.000000 
L_Leg01 0.000000 0.000000 0.000000 0.000000 0.000000 0.000000 10.000000 
L_Leg02 0.000000 0.000000 0.000000 0.000000 0.000000 0.000000 10.000000 
L_Leg03 0.000000 0.000000 0.000000 0.000000 0.000000 0.000000 10.000000 
L_Foot 0.000000 0.000000 0.000000 0.000000 0.000000 0.000000 10.000000 
L_Toe1_01 0.000000 0.000000 0.000000 0.000000 0.000000 0.000000 10.000000 
L_Toe2_01 0.000000 0.000000 0.000000 0.000000 0.000000 0.000000 10.000000 
L_Toe3_01 0.000000 0.000000 0.000000 0.000000 0.000000 0.000000 10.000000 
planeAlignerLeft 0.000000 0.000000 0.000000 0.000000 0.000000 0.000000 10.000000 
L_Toe1_02 0.000000 0.000000 0.000000 0.000000 0.000000 0.000000 10.000000 
L_Toe1_03 0.000000 0.000000 0.000000 0.000000 0.000000 0.000000 10.000000 
L_Toe2_02 0.000000 0.000000 0.000000 0.000000 0.000000 0.000000 10.000000 
L_Toe2_03 0.000000 0.000000 0.000000 0.000000 0.000000 0.000000 10.000000 
L_Toe3_02 0.000000 0.000000 0.000000 0.000000 0.000000 0.000000 10.000000 
L_Toe3_03 0.000000 0.000000 0.000000 0.000000 0.000000 0.000000 10.000000 
planeLockWeightLeft 0.000000 0.000000 0.000000 0.000000 0.000000 0.000000 10.000000 
R_Leg01 0.000000 0.000000 0.000000 0.000000 0.000000 0.000000 10.000000 
R_Leg02 0.000000 0.000000 0.000000 0.000000 0.000000 0.000000 10.000000 
R_Leg03 0.000000 0.000000 0.000000 0.000000 0.000000 0.000000 10.000000 
R_Foot 0.000000 0.000000 0.000000 0.000000 0.000000 0.000000 10.000000 
planeAlignerRight 0.000000 0.000000 0.000000 0.000000 0.000000 0.000000 10.000000 
R_Toe1_01 0.000000 0.000000 0.000000 0.000000 0.000000 0.000000 10.000000 
R_Toe2_01 0.000000 0.000000 0.000000 0.000000 0.000000 0.000000 10.000000 
R_Toe3_01 0.000000 0.000000 0.000000 0.000000 0.000000 0.000000 10.000000 
planeLockWeightRight 0.000000 0.000000 0.000000 0.000000 0.000000 0.000000 10.000000 
R_Toe1_02 0.000000 0.000000 0.000000 0.000000 0.000000 0.000000 10.000000 
R_Toe1_03 0.000000 0.000000 0.000000 0.000000 0.000000 0.000000 10.000000 
R_Toe2_02 0.000000 0.000000 0.000000 0.000000 0.000000 0.000000 10.000000 
R_Toe2_03 0.000000 0.000000 0.000000 0.000000 0.000000 0.000000 10.000000 
R_Toe3_02 0.000000 0.000000 0.000000 0.000000 0.000000 0.000000 10.000000 
R_Toe3_03 0.000000 0.000000 0.000000 0.000000 0.000000 0.000000 10.000000 
Rear_Leg02 0.000000 0.000000 0.000000 0.000000 0.000000 0.000000 10.000000 
Rear_Leg03 0.000000 0.000000 0.000000 0.000000 0.000000 0.000000 10.000000 
Rear_Leg04 0.000000 0.000000 0.000000 0.000000 0.000000 0.000000 10.000000 
Rear_Foot 0.000000 0.000000 0.000000 0.000000 0.000000 0.000000 10.000000 
planeAlignerCenter 0.000000 0.000000 0.000000 0.000000 0.000000 0.000000 10.000000 
Rear_Toe1_01 0.000000 0.000000 0.000000 0.000000 0.000000 0.000000 10.000000 
Rear_Toe2_01 0.000000 0.000000 0.000000 0.000000 0.000000 0.000000 10.000000 
Rear_Toe3_01 0.000000 0.000000 0.000000 0.000000 0.000000 0.000000 10.000000 
planeLockWeightCenter 0.000000 0.000000 0.000000 0.000000 0.000000 0.000000 10.000000 
Rear_Toe1_02 0.000000 0.000000 0.000000 0.000000 0.000000 0.000000 10.000000 
Rear_Toe1_03 0.000000 0.000000 0.000000 0.000000 0.000000 0.000000 10.000000 
Rear_Toe2_02 0.000000 0.000000 0.000000 0.000000 0.000000 0.000000 10.000000 
Rear_Toe2_03 0.000000 0.000000 0.000000 0.000000 0.000000 0.000000 10.000000 
Rear_Toe3_02 0.000000 0.000000 0.000000 0.000000 0.000000 0.000000 10.000000 
Rear_Toe3_03 0.000000 0.000000 0.000000 0.000000 0.000000 0.000000 10.000000 
Back_Bone 0.000000 0.000000 0.000000 0.000000 0.000000 0.000000 10.000000 
Head 0.000000 0.000000 0.000000 0.000000 0.000000 0.000000 10.000000 
Motor_Bone 0.000000 0.000000 0.000000 0.000000 0.000000 0.000000 10.000000 
Ping_Mechanism 0.000000 0.000000 0.000000 0.000000 0.000000 0.000000 10.000000 
BN_LookIK 0.000000 0.000000 0.000000 0.000000 0.000000 0.000000 10.000000 
bottomMouth 0.000000 0.000000 0.000000 0.000000 0.000000 0.000000 10.000000 
L_Mouth01 0.000000 0.000000 0.000000 0.000000 0.000000 0.000000 10.000000 
L_mouthFront 0.000000 0.000000 0.000000 0.000000 0.000000 0.000000 10.000000 
mouthGun 0.000000 0.000000 0.000000 0.000000 0.000000 0.000000 10.000000 
R_Mouth01 0.000000 0.000000 0.000000 0.000000 0.000000 0.000000 10.000000 
R_mouthFront 0.000000 0.000000 0.000000 0.000000 0.000000 0.000000 10.000000 
TopMouth 0.000000 0.000000 0.000000 0.000000 0.000000 0.000000 10.000000 
weapon_bone 0.000000 0.000000 0.000000 0.000000 0.000000 0.000000 10.000000 
#Beginning of Data. Separated by tabs
#Fr	Tx	Ty	Tz	Rx	Ry	Rz	SF
[Pinger_Root]
12 0.000000 0.000000 0.000000 -0.000075 -0.000000 -0.000020 0.000000
13 0.000000 0.000000 0.000000 -0.000075 -0.000000 -0.000020 0.000000
14 0.000000 0.000000 0.000000 -0.000075 -0.000000 -0.000020 0.000000
[Pelvis]
12 -262.798950 -936.233765 3703.624023 -130.998856 -74.949516 110.759926 3829.155029
13 -267.857574 -896.356934 3510.733643 -116.136757 -78.340019 96.903374 3633.242920
14 -267.771637 -871.437622 3462.223145 -104.498993 -79.673851 86.568207 3580.236328
[L_Hip]
12 5.766392 125.831482 872.656799 157.061218 -49.948078 123.879539 881.701050
13 5.766392 125.831482 872.656799 161.714188 -52.902435 117.675964 881.701050
14 5.766392 125.831482 872.656799 170.195999 -55.924976 107.285286 881.701050
[R_Hip]
12 5.765438 125.836372 -872.654907 -4.282621 73.060593 72.222679 881.699829
13 5.765438 125.836372 -872.654907 -2.520501 82.413048 74.352112 881.699829
14 5.765438 125.836372 -872.654907 -2.520474 82.413025 74.352097 881.699829
[Rear_Leg01]
12 -192.298416 -925.602966 -0.001907 115.529945 2.981769 -151.473648 945.367432
13 -192.298416 -925.602966 -0.001907 118.616905 6.789988 -147.884079 945.367432
14 -192.298416 -925.602966 -0.001907 120.990372 7.860118 -146.193634 945.367432
[Spine1]
12 290.604584 5.007505 0.000477 22.018316 -4.291905 18.835114 290.647736
13 290.604584 5.007505 0.000477 19.204391 -8.101946 20.175554 290.647736
14 290.604584 5.007505 0.000477 16.983622 -9.704275 20.998138 290.647736
[L_Leg01]
12 761.932007 -0.002384 -0.069261 20.023949 -21.660992 23.118948 761.932068
13 761.932007 -0.002384 -0.069261 15.128675 -25.676208 18.269365 761.932068
14 761.932007 -0.002384 -0.069261 13.360720 -28.828081 7.991032 761.932068
[L_Leg02]
12 1441.140503 -0.000954 -0.000715 -1.437457 0.516422 -100.986977 1441.140503
13 1441.140503 -0.000954 -0.000715 -1.261039 0.447647 -106.810616 1441.140503
14 1441.140503 -0.000954 -0.000715 -1.316137 0.464505 -105.492638 1441.140503
[L_Leg03]
12 1686.963989 -0.000715 -0.000954 0.036464 -0.010587 101.138351 1686.963989
13 1686.963989 -0.000715 -0.000954 0.029370 -0.010278 102.597054 1686.963989
14 1686.963989 -0.000715 -0.000954 0.029395 -0.010206 102.317932 1686.963989
[L_Foot]
12 3041.570068 -30.715107 11.297464 -5.958461 2.691269 20.244577 3041.746094
13 3041.570068 -30.715107 11.297464 -4.550650 2.559420 21.741343 3041.746094
14 3041.570068 -30.715107 11.297464 -3.067117 2.614627 22.661570 3041.746094
[L_Toe1_01]
12 -188.216690 -224.732346 -21.137953 94.280670 -28.131254 179.902283 293.899567
13 -188.216690 -224.732346 -21.137953 94.280670 -28.131248 179.902283 293.899567
14 -188.216690 -224.732346 -21.137953 94.280670 -28.131254 179.902283 293.899567
[L_Toe2_01]
12 200.746536 -219.926590 148.838394 -108.981384 -14.928106 -28.369629 332.896027
13 200.746536 -219.926590 148.838394 -108.981384 -14.928034 -28.369728 332.896027
14 200.746536 -219.926590 148.838394 -108.981369 -14.927964 -28.369827 332.896027
[L_Toe3_01]
12 188.832520 -219.859131 -191.078659 -119.528816 36.514465 -78.862701 347.140900
13 188.832520 -219.859131 -191.078659 -119.528816 36.514465 -78.862701 347.140900
14 188.832520 -219.859131 -191.078659 -119.528816 36.514465 -78.862701 347.140900
[planeAlignerLeft]
12 0.812531 -811.448792 -0.314951 0.000000 -90.000000 -90.001900 811.449280
13 0.812531 -811.448792 -0.314951 0.000000 -90.000000 -90.001900 811.449280
14 0.812531 -811.448792 -0.314951 0.000000 -90.000000 -90.001900 811.449280
[L_Toe1_02]
12 413.761139 0.000477 0.000000 0.001661 0.070897 0.001661 413.761139
13 413.761139 0.000477 0.000000 0.001661 0.070897 0.001661 413.761139
14 413.761139 0.000477 0.000000 0.001661 0.070897 0.001661 413.761139
[L_Toe1_03]
12 464.317322 0.000358 -0.000089 0.001673 -0.448396 -0.003292 464.317322
13 464.317322 0.000358 -0.000089 0.001673 -0.448396 -0.003292 464.317322
14 464.317322 0.000358 -0.000089 0.001673 -0.448396 -0.003292 464.317322
[L_Toe2_02]
12 342.235809 -0.000477 0.000238 0.004684 -81.229065 0.004684 342.235809
13 342.235809 -0.000477 0.000238 0.004684 -81.229340 0.004684 342.235809
14 342.235809 -0.000477 0.000238 0.004684 -81.229652 0.004684 342.235809
[L_Toe2_03]
12 420.210846 -0.000715 0.000000 179.993195 44.163803 -179.999222 420.210846
13 420.210846 -0.000715 0.000000 179.993195 44.163792 -179.999222 420.210846
14 420.210846 -0.000715 0.000000 179.993195 44.163792 -179.999222 420.210846
[L_Toe3_02]
12 329.270111 0.000954 0.000000 0.004675 -84.682312 0.004675 329.270111
13 329.270111 0.000954 0.000000 0.004675 -84.681717 0.004675 329.270111
14 329.270111 0.000954 0.000000 0.004675 -84.681168 0.004675 329.270111
[L_Toe3_03]
12 439.137451 -0.001907 0.000954 179.993454 37.691116 -179.998764 439.137451
13 439.137451 -0.001907 0.000954 179.993454 37.691116 -179.998764 439.137451
14 439.137451 -0.001907 0.000954 179.993454 37.691116 -179.998764 439.137451
[planeLockWeightLeft]
12 -0.000954 0.000238 -0.000305 -0.011826 -0.004376 0.005620 0.001029
13 -0.000954 0.000238 -0.000305 -0.011826 -0.004376 0.005620 0.001029
14 -0.000954 0.000238 -0.000305 -0.011826 -0.004376 0.005620 0.001029
[R_Leg01]
12 761.455627 -0.001907 -0.000358 107.725685 -63.433540 68.169930 761.455688
13 761.455627 -0.001907 -0.000358 89.365013 -67.561707 78.891838 761.455688
14 761.455627 -0.001907 -0.000358 91.832016 -67.013504 73.730110 761.455688
[R_Leg02]
12 1441.140625 0.000000 -0.000238 1.100680 -0.616169 -87.159119 1441.140625
13 1441.140625 0.000000 -0.000238 1.160219 -0.541642 -92.708603 1441.140625
14 1441.140625 0.000000 -0.000238 1.200792 -0.492453 -96.371330 1441.140625
[R_Leg03]
12 1686.963989 0.000954 0.001431 -0.092801 0.013082 84.544090 1686.963989
13 1686.963989 0.000954 0.001431 -0.067430 0.014767 91.323570 1686.963989
14 1686.963989 0.000954 0.001431 -0.056519 0.013295 95.656250 1686.963989
[R_Foot]
12 3041.560059 -30.531288 -11.204481 -0.585280 -24.583036 31.781670 3041.734131
13 3041.560059 -30.531288 -11.204481 -0.127680 -23.437971 27.032480 3041.734131
14 3041.560059 -30.531288 -11.204481 0.326508 -23.179558 25.624880 3041.734131
[planeAlignerRight]
12 -0.635147 -812.270569 -0.364304 0.000000 -89.960434 -90.005180 812.270874
13 -0.635147 -812.270569 -0.364304 0.000000 -89.960434 -90.005180 812.270874
14 -0.635147 -812.270569 -0.364304 0.000000 -89.960434 -90.005180 812.270874
[R_Toe1_01]
12 -188.383347 -224.864899 21.052242 77.501541 2.586503 -171.440872 294.101532
13 -188.383347 -224.864899 21.052242 77.501541 2.586504 -171.440872 294.101532
14 -188.383347 -224.864899 21.052242 77.501526 2.586503 -171.440872 294.101532
[R_Toe2_01]
12 200.637817 -220.002121 -148.787384 -87.008095 41.684956 -47.433487 332.857574
13 200.637817 -220.002121 -148.787384 -87.007736 41.687477 -47.432514 332.857574
14 200.637817 -220.002121 -148.787384 -87.007370 41.689995 -47.431538 332.857574
[R_Toe3_01]
12 188.606735 -220.092957 191.126343 -74.776878 -14.743338 -63.952126 347.192566
13 188.606735 -220.092957 191.126343 -74.776886 -14.743338 -63.952141 347.192566
14 188.606735 -220.092957 191.126343 -74.776886 -14.743338 -63.952141 347.192566
[planeLockWeightRight]
12 -0.000477 0.000000 0.000000 -0.011823 -0.004379 -0.000027 0.000477
13 -0.000477 0.000000 0.000000 -0.011823 -0.004379 -0.000027 0.000477
14 -0.000477 0.000000 0.000000 -0.011823 -0.004379 -0.000027 0.000477
[R_Toe1_02]
12 413.762085 0.000477 -0.000119 0.001417 -21.782352 0.001417 413.762085
13 413.762085 0.000477 -0.000119 0.001417 -21.782572 0.001417 413.762085
14 413.762085 0.000477 -0.000119 0.001417 -21.782789 0.001417 413.762085
[R_Toe1_03]
12 464.317810 0.000000 0.001088 0.000898 28.934635 -0.003161 464.317810
13 464.317810 0.000000 0.001088 0.000898 28.934868 -0.003161 464.317810
14 464.317810 0.000000 0.001088 0.000898 28.935083 -0.003161 464.317810
[R_Toe2_02]
12 342.234741 -0.000954 0.000238 -0.002334 -78.761276 -0.002334 342.234741
13 342.234741 -0.000954 0.000238 -0.002334 -78.761276 -0.002334 342.234741
14 342.234741 -0.000954 0.000238 -0.002334 -78.761276 -0.002334 342.234741
[R_Toe2_03]
12 420.210846 0.000715 -0.000268 -179.994690 71.307556 -179.998230 420.210846
13 420.210846 0.000715 -0.000268 -179.994690 71.307823 -179.998230 420.210846
14 420.210846 0.000715 -0.000268 -179.994690 71.308121 -179.998230 420.210846
[R_Toe3_02]
12 329.270355 -0.000477 -0.000954 0.001175 -83.995110 0.001175 329.270355
13 329.270355 -0.000477 -0.000954 0.001175 -83.998772 0.001175 329.270355
14 329.270355 -0.000477 -0.000954 0.001175 -84.002533 0.001175 329.270355
[R_Toe3_03]
12 439.137939 0.000238 0.001431 -179.995331 57.505398 -179.988052 439.137939
13 439.137939 0.000238 0.001431 -179.995331 57.505680 -179.988052 439.137939
14 439.137939 0.000238 0.001431 -179.995331 57.505917 -179.988052 439.137939
[Rear_Leg02]
12 1162.777710 -0.029802 0.005960 -36.111473 41.775375 -142.809906 1162.777710
13 1162.777710 -0.029802 0.005960 -40.223370 37.906387 -149.472672 1162.777710
14 1162.777710 -0.029802 0.005960 -40.959282 37.087360 -150.749161 1162.777710
[Rear_Leg03]
12 607.192505 -0.013351 -0.073195 0.010309 -0.005466 72.216255 607.192505
13 607.192505 -0.013351 -0.073195 0.010224 -0.005623 73.976952 607.192505
14 607.192505 -0.013351 -0.073195 0.010208 -0.005653 74.305481 607.192505
[Rear_Leg04]
12 995.874512 -0.020504 -0.011921 -0.041481 -0.015759 75.758331 995.874573
13 995.874512 -0.020504 -0.011921 -0.045276 -0.017845 80.394051 995.874573
14 995.874512 -0.020504 -0.011921 -0.045422 -0.017470 81.342712 995.874573
[Rear_Foot]
12 3096.176270 -0.067472 -0.041425 91.935921 42.725109 -76.501854 3096.176270
13 3096.176270 -0.067472 -0.041425 92.111717 43.570595 -74.104225 3096.176270
14 3096.176270 -0.067472 -0.041425 92.495667 43.761978 -73.048164 3096.176270
[planeAlignerCenter]
12 0.350077 0.966311 -838.790894 0.000009 0.000003 -179.999985 838.791565
13 0.350077 0.966311 -838.790894 0.000009 0.000003 -179.999985 838.791565
14 0.350077 0.966311 -838.790894 0.000009 0.000003 -179.999985 838.791565
[Rear_Toe1_01]
12 0.653352 83.966492 -371.173737 -30.737474 22.795208 86.623016 380.553192
13 0.653352 83.966492 -371.173737 -30.737791 22.794851 86.622574 380.553192
14 0.653352 83.966492 -371.173737 -30.738102 22.794487 86.622116 380.553192
[Rear_Toe2_01]
12 178.200760 -294.826019 -362.060547 -8.137201 -0.240491 -62.327705 499.765686
13 178.200760 -294.826019 -362.060547 -8.137313 -0.240770 -62.325451 499.765686
14 178.200760 -294.826019 -362.060547 -8.137427 -0.241049 -62.323196 499.765686
[Rear_Toe3_01]
12 -153.359680 -308.780914 -362.060852 3.735051 13.478100 -102.819321 499.952881
13 -153.359680 -308.780914 -362.060852 3.735075 13.478662 -102.816589 499.952881
14 -153.359680 -308.780914 -362.060852 3.735099 13.479226 -102.813843 499.952881
[planeLockWeightCenter]
12 -0.000062 0.000238 0.000000 -0.011814 -0.004373 -0.000015 0.000246
13 -0.000062 0.000238 0.000000 -0.011814 -0.004373 -0.000015 0.000246
14 -0.000062 0.000238 0.000000 -0.011814 -0.004373 -0.000015 0.000246
[Rear_Toe1_02]
12 379.707825 0.194073 0.000477 -0.006719 -30.019583 -0.006719 379.707855
13 379.707825 0.194073 0.000477 -0.006719 -30.019583 -0.006719 379.707855
14 379.707825 0.194073 0.000477 -0.006719 -30.019583 -0.006719 379.707855
[Rear_Toe1_03]
12 500.129700 0.165701 0.000119 -179.994812 70.567146 -179.998367 500.129761
13 500.129700 0.165701 0.000119 -179.994812 70.569855 -179.998367 500.129761
14 500.129700 0.165701 0.000119 -179.994812 70.572479 -179.998367 500.129761
[Rear_Toe2_02]
12 340.494507 0.000238 -0.000954 0.001661 0.065225 0.001661 340.494507
13 340.494507 0.000238 -0.000954 0.001661 0.065080 0.001661 340.494507
14 340.494507 0.000238 -0.000954 0.001661 0.064934 0.001661 340.494507
[Rear_Toe2_03]
12 433.103577 0.000000 0.000238 -0.003297 -0.804494 0.001683 433.103546
13 433.103577 0.000000 0.000238 -0.003297 -0.804494 0.001683 433.103546
14 433.103577 0.000000 0.000238 -0.003297 -0.804494 0.001683 433.103546
[Rear_Toe3_02]
12 340.494141 -0.000358 -0.000477 -0.002600 -36.654480 -0.002600 340.494171
13 340.494141 -0.000358 -0.000477 -0.002600 -36.654476 -0.002600 340.494171
14 340.494141 -0.000358 -0.000477 -0.002600 -36.654480 -0.002600 340.494171
[Rear_Toe3_03]
12 433.103577 0.001431 -0.000238 0.006396 30.714855 -0.001650 433.103546
13 433.103577 0.001431 -0.000238 0.006396 30.714855 -0.001650 433.103546
14 433.103577 0.001431 -0.000238 0.006396 30.714851 -0.001650 433.103546
[Back_Bone]
12 1312.175781 -701.934692 0.000954 6.061552 -8.854410 -85.019295 1488.125488
13 1312.175781 -701.934692 0.000954 7.028594 -9.921133 -90.244423 1488.125488
14 1312.175781 -701.934692 0.000954 8.040440 -11.038109 -94.905083 1488.125488
[Head]
12 1406.159424 809.709290 0.001431 -0.509266 -1.516579 29.086426 1622.625488
13 1406.159424 809.709290 0.001431 -0.509266 -1.516579 29.086430 1622.625488
14 1406.159424 809.709290 0.001431 -0.581530 -1.477999 31.994284 1622.625488
[Motor_Bone]
12 1158.364380 -417.834747 0.000477 4.283329 -8.114882 -64.308182 1231.419434
13 1158.364380 -417.834747 0.000477 9.170877 -17.618088 -69.460472 1231.419434
14 1158.364380 -417.834747 0.000477 8.979959 -22.515907 -78.501991 1231.419434
[Ping_Mechanism]
12 1249.894409 -638.895264 -28.348770 0.000103 -0.000053 82.120995 1404.003784
13 1243.147827 -627.149048 -9.489051 0.000103 -0.000053 82.120995 1392.416016
14 1240.546021 -619.414307 -0.513620 0.000103 -0.000053 82.120995 1386.588867
[BN_LookIK]
12 193.241119 1380.371704 -0.002861 0.000000 89.965736 -31.038179 1393.832153
13 193.241119 1380.371704 -0.002861 0.000000 89.965736 -31.038179 1393.832153
14 193.241119 1380.371704 -0.002861 0.000000 89.965736 -31.038179 1393.832153
[bottomMouth]
12 -435.092926 615.759399 -0.000954 -0.000022 0.000016 73.527184 753.966492
13 -435.092926 615.759399 -0.000954 -0.000022 0.000016 73.527184 753.966492
14 -435.092926 615.759399 -0.000954 -0.000022 0.000016 73.527184 753.966492
[L_Mouth01]
12 554.440979 7.658243 838.222046 150.204178 23.759130 109.605339 1005.027161
13 554.440979 7.658243 838.222046 150.204178 23.759130 109.605339 1005.027161
14 554.440979 7.658243 838.222046 150.204178 23.759130 109.605339 1005.027161
[L_mouthFront]
12 551.629089 934.514771 339.150421 0.000081 2.804060 79.119301 1136.941284
13 551.629089 934.514771 339.150421 0.000081 2.804060 79.119301 1136.941284
14 551.629089 934.514771 339.150421 0.000081 2.804060 79.119301 1136.941284
[mouthGun]
12 55.332661 1627.420898 0.000000 0.000023 0.000009 -11.038128 1628.361328
13 55.332661 1627.420898 0.000000 0.000023 0.000009 -11.038128 1628.361328
14 55.332661 1627.420898 0.000000 0.000023 0.000009 -11.038128 1628.361328
[R_Mouth01]
12 554.442383 7.659197 -838.223938 29.795891 -23.759109 109.605331 1005.029541
13 554.442383 7.659197 -838.223938 29.795891 -23.759109 109.605331 1005.029541
14 554.442383 7.659197 -838.223938 29.795891 -23.759109 109.605331 1005.029541
[R_mouthFront]
12 551.629089 934.514282 -339.151367 0.000029 -2.803930 79.119133 1136.941162
13 551.629089 934.514282 -339.151367 0.000029 -2.803930 79.119133 1136.941162
14 551.629089 934.514282 -339.151367 0.000029 -2.803930 79.119133 1136.941162
[TopMouth]
12 461.269867 -56.106091 -0.008583 -0.000059 -0.000268 92.025169 464.669525
13 461.269867 -56.106091 -0.008583 -0.000059 -0.000268 92.025169 464.669525
14 461.269867 -56.106091 -0.008583 -0.000059 -0.000268 92.025169 464.669525
[weapon_bone]
12 -987.239868 1448.372803 0.001431 0.000000 89.965736 -31.038221 1752.833740
13 -987.239868 1448.372803 0.001431 0.000000 89.965736 -31.038221 1752.833740
14 -987.239868 1448.372803 0.001431 0.000000 89.965736 -31.038221 1752.833740
